<?xml version="1.0" ?><svg height="24" id="svg8" version="1.1" viewBox="0 0 24 24" width="24" xmlns="http://www.w3.org/2000/svg" xmlns:cc="http://creativecommons.org/ns#" xmlns:dc="http://purl.org/dc/elements/1.1/" xmlns:rdf="http://www.w3.org/1999/02/22-rdf-syntax-ns#" xmlns:svg="http://www.w3.org/2000/svg"><defs id="defs2"/><g id="g2206" style="display:inline" transform="translate(0.03440353,-450.68428)"><path d="m 3.31645,466.86324 -1.30926,4.44705 c -0.22143,0.75418 0.4737,1.45732 1.23037,1.2445 l 4.46775,-1.26367 c 3.77726,1.89322 8.36342,1.23895 11.37724,-1.77604 3.8443,-3.8448 3.8443,-10.10954 0,-13.95431 -3.84431,-3.84477 -10.4108,-3.54127 -13.82904,-0.12309 -3.41823,3.41819 -3.78311,7.65959 -1.93706,11.42556 z m 14.35204,1.23785 c -2.50656,2.50754 -6.36706,3.0309 -9.44924,1.27884 -0.23226,-0.13227 -0.50778,-0.16607 -0.76514,-0.0939 l -3.01763,0.85211 0.8839,-2.99966 c 0.0763,-0.25733 0.046,-0.53454 -0.0842,-0.76926 -1.71394,-3.0758 -1.37712,-6.70816 1.40785,-9.49329 2.78497,-2.78514 7.94442,-2.98157 11.02446,0.0991 3.08007,3.08063 3.08005,8.04563 0,11.12608 z" id="path2142" style="color:#000000;font-style:normal;font-variant:normal;font-weight:normal;font-stretch:normal;font-size:medium;line-height:normal;font-family:sans-serif;font-variant-ligatures:normal;font-variant-position:normal;font-variant-caps:normal;font-variant-numeric:normal;font-variant-alternates:normal;font-variant-east-asian:normal;font-feature-settings:normal;font-variation-settings:normal;text-indent:0;text-align:start;text-decoration:none;text-decoration-line:none;text-decoration-style:solid;text-decoration-color:#000000;letter-spacing:normal;word-spacing:normal;text-transform:none;writing-mode:lr-tb;direction:ltr;text-orientation:mixed;dominant-baseline:auto;baseline-shift:baseline;text-anchor:start;white-space:normal;shape-padding:0;shape-margin:0;inline-size:0;clip-rule:nonzero;display:inline;overflow:visible;visibility:visible;opacity:1;isolation:auto;mix-blend-mode:normal;color-interpolation:sRGB;color-interpolation-filters:linearRGB;solid-color:#000000;solid-opacity:1;vector-effect:none;fill:#000000;fill-opacity:1;fill-rule:nonzero;stroke:none;stroke-linecap:round;stroke-linejoin:round;stroke-miterlimit:4;stroke-dasharray:none;stroke-dashoffset:0;stroke-opacity:1;color-rendering:auto;image-rendering:auto;shape-rendering:auto;text-rendering:auto;enable-background:accumulate;stop-color:#000000;stop-opacity:1"/></g></svg>