<?xml version="1.0" ?><svg viewBox="0 0 200 200" xmlns="http://www.w3.org/2000/svg"><defs><style>.a{fill:#ff8684;}.b{fill:#ffd35c;}.c{fill:#fde992;}.d{fill:#6c458f;}.e{fill:#1d1d1b;}.f{fill:#c17e48;}.g{fill:#f76559;}.h{fill:#76d3de;}.i{fill:#b2eacd;}</style></defs><path class="a" d="M75.4,129.573c3.566-.436,6.333-.742,8.4-.949A58.8,58.8,0,0,0,75.4,129.573Z"/><path class="a" d="M92.913,122.9a12.117,12.117,0,0,1-5.43-.089,5.882,5.882,0,0,1-3.861-5.8c-1.129,1.1-3.594.657-4.428-1.536-1.194.276-.121-1.136-1.28,3.961a.415.415,0,0,1-.24.284,13.153,13.153,0,0,1-11.707,10.167,1.793,1.793,0,0,0,1.069.639c5.97-1.59,17.479-4.029,23.335-2.037,1.6.543,2.554,1.435,5.44,3.448.028-.172.748-4.43,1.077-6.389A10.735,10.735,0,0,1,92.913,122.9Zm-13.233.257a.742.742,0,0,1,0-1.484A.742.742,0,0,1,79.68,123.161Z"/><path class="a" d="M120.2,133.646a32.848,32.848,0,0,1,7.405,1.116A22.532,22.532,0,0,0,120.2,133.646Z"/><path class="a" d="M136.449,134.792c-.134-.122.042.528-1.835-7.838-4.7-.75-7.938-3.616-9.28-8.511a.566.566,0,0,1-.136,0,11.931,11.931,0,0,1-.985,4.416,6.227,6.227,0,0,1-4.28,3.621,4.1,4.1,0,0,1-4.636-2.594c-2.444,2.77-3.973,3.476-7.633,1.735v9.394c5.556-.732,9.24-3.082,16.479-1.981A22.482,22.482,0,0,1,134,137.048a21.777,21.777,0,0,1,2.262-1.937C136.5,134.928,136.474,135.012,136.449,134.792Zm-21.967-4.578h-.458a.742.742,0,1,1,0-1.484h.458a.742.742,0,0,1,0,1.484Zm12.744-.686a.742.742,0,0,1,0-1.484A.742.742,0,0,1,127.226,129.528Z"/><path class="a" d="M122.922,101.833a4.6,4.6,0,0,1,.411-.848,17.918,17.918,0,0,1,1.806-5.787,29.718,29.718,0,0,0-10.5-9.218c-7.715-3.867-16.569-1.446-22.617-.756A30.618,30.618,0,0,1,70,79.588C56.256,69.075,55.039,49.613,60.145,33.107l-13.4-3.816c-.173-.05-11.277,18.026-3.689,41.609C47.7,85.344,54.431,89.8,55.575,94.263a45.16,45.16,0,0,1,9.207-5.111c1.992-.871,4.173-1.7,6.3-1.222.823.181.921.594.642,1.3a16.1,16.1,0,0,1-1.629,3.036,30.659,30.659,0,0,1,4.575-1.451,3.142,3.142,0,0,1,2.723.246,2.235,2.235,0,0,1,.374,2.639,6.52,6.52,0,0,1-1.925,2.1,5.917,5.917,0,0,1,3.817,0,4.007,4.007,0,0,1,1.852,4.341,11.434,11.434,0,0,1-2.271,4.486,7.58,7.58,0,0,1-1.557,1.736c.151.424.279.853.4,1.289a1.953,1.953,0,0,1,2.086.418,33.817,33.817,0,0,1,5.073-7.823c3.225-3.939,6.891-7.711,11.555-9.759C107.284,85.891,118.66,91.54,122.922,101.833ZM45.1,49.228a.743.743,0,0,1,0-1.485A.743.743,0,0,1,45.1,49.228Zm1.591,12.739h-.229a.743.743,0,0,1,0-1.485h.229a.743.743,0,0,1,0,1.485Zm1.367-21.611H47.83c-.336,0-.643-.2-.742-.742a.749.749,0,0,1,.742-.743h.229c.336,0,.643.2.742.743A.749.749,0,0,1,48.059,40.356Zm3.415,31.163a.742.742,0,0,1,0-1.484A.742.742,0,0,1,51.474,71.519ZM51.468,46.27h-.229a.742.742,0,0,1,0-1.484h.229a.742.742,0,0,1,0,1.484ZM56.25,67.307a.742.742,0,0,1,0,1.484A.742.742,0,0,1,56.25,67.307Zm1.362,18.77h-.229a.742.742,0,0,1,0-1.484h.229a.742.742,0,1,1,0,1.484ZM62,79.035l-.229.229a.742.742,0,0,1-1.049-1.049l.229-.229A.742.742,0,0,1,62,79.035Zm5.619,8.181a.743.743,0,0,1,0-1.485A.743.743,0,0,1,67.622,87.216Zm17.515,5.233a.742.742,0,0,1,0-1.484A.742.742,0,0,1,85.137,92.449Zm23.659-5a.742.742,0,0,1,0-1.484A.742.742,0,0,1,108.8,87.444Z"/><path class="b" d="M142,72.825c-2.2-1.106-9.361-2.884-13.8-5.7-3.259-2.065-5.424-5.24-7.1-8.682-3.286-6.752-3.542-14.525-2.315-21.823.206-1.234,3.225-13.342,3.688-13.169l-11.015-4.2a48.434,48.434,0,0,0-6.673,20.375,2.774,2.774,0,0,1,2.756,3.287c.954-.91,2.639-.318,3.415.747a4.14,4.14,0,0,1-1.21,5.759,5.4,5.4,0,0,1,.1,9.391,2.8,2.8,0,0,1,1.16,2.505,5.953,5.953,0,0,1-2.3,3.984,64.025,64.025,0,0,0,5.87,10.861,32.288,32.288,0,0,0-7.547,7.77,21.011,21.011,0,0,1,7.616,2.043,29.608,29.608,0,0,1,10.5,9.218c.968-1.864,3.6-5.632,5.525-4.813a2.093,2.093,0,0,1,.858,2.511c.765-1.312,2.33-3.31,3.789-3.677a2.512,2.512,0,0,1,2.991,3.2,11.13,11.13,0,0,1,2.952-2.081c1.463-.69,2.253-.372,3,.8a8.354,8.354,0,0,1,1.295,4.5,2.432,2.432,0,0,1,3.325-.826,3.733,3.733,0,0,1,1.652,3.281c-.017,1.927-1.316,4.268-2.361,5.893a3.814,3.814,0,1,1,1.011,7.5,13.367,13.367,0,0,1-2.925,10.859c.129.429,2.049,7.41,2.149,7.65,3.006-.521,4.094-.356,5.356-.631,1.016-2.125,5.7-12.683,7.26-29.021C158.672,88.854,152.5,77.729,142,72.825Z"/><path class="c" d="M112.093,22.322c.265.14-.212.481-.641.34C111.418,22.561,111.853,22.194,112.093,22.322Z"/><path class="c" d="M124.79,118.12c-1.947-5.174-3.9-11.235-1.868-16.287-4.233-10.225-15.587-15.983-26.134-11.359-4.659,2.048-8.331,5.82-11.556,9.759a33.813,33.813,0,0,0-5.072,7.823,5.085,5.085,0,0,1,1.239,3.811c-.084,1.3-.826,3.3-2.2,3.609.828,2.177,3.287,2.648,4.428,1.536a5.882,5.882,0,0,0,3.861,5.8,12.1,12.1,0,0,0,5.43.089c-3.28-3.342-4.4-8.09-3.959-12.716a3.363,3.363,0,1,1,1.417-6.261,14.454,14.454,0,0,1,.731-1.841c.223-.223.753-.229,1.055-.29,6.479-1.316,9.241-1.671,11.723-3.309a.451.451,0,0,1,.608.162,2.954,2.954,0,0,0,3.024.976,8.9,8.9,0,0,0,3.627-2.12.449.449,0,0,1,.743.2,23,23,0,0,0,3.933,8.744,5.794,5.794,0,0,1,1.2,2.109c2.78-.525,4.18,2.359,3.036,4.447a4.329,4.329,0,0,1-4.107,2.065,16.541,16.541,0,0,1-8.28,9.859v.67c3.644,1.733,5.175,1.052,7.633-1.735a4.093,4.093,0,0,0,4.637,2.594,6.215,6.215,0,0,0,4.28-3.621,12.035,12.035,0,0,0,.982-4.414A.491.491,0,0,1,124.79,118.12Z"/><path class="d" d="M79.658,95.786a5.924,5.924,0,0,0-3.817,0,6.509,6.509,0,0,0,1.925-2.1,2.229,2.229,0,0,0-.374-2.639,3.139,3.139,0,0,0-2.723-.245,30.472,30.472,0,0,0-4.575,1.45,16.348,16.348,0,0,0,1.629-3.035c.281-.717.175-1.13-.642-1.306-2.126-.469-4.3.357-6.3,1.222a45.335,45.335,0,0,0-9.207,5.111c-2.178,1.643-5.494,4.646-5.7,7.394-.2,2.638,2.276,5.7,4.213,7.448a3.9,3.9,0,0,1,1.584.458c.153-4.355,2.174-8.959,5.96-11.07,5.225-2.916,13.091-.429,16.047,7.862a7.823,7.823,0,0,0,1.557-1.735,11.371,11.371,0,0,0,2.271-4.487A4.016,4.016,0,0,0,79.658,95.786Z"/><path class="e" d="M51.094,14.532a22.778,22.778,0,0,1,.536,5.145c0,.586.837.558.893,0a18.957,18.957,0,0,1,1.852-6.512A3.921,3.921,0,0,1,55.2,11.9c.33-.29.882-.457,1.2-.067a2.566,2.566,0,0,1,.379,1.284,17.489,17.489,0,0,1-.178,5.853.445.445,0,0,0,.859.234,22.045,22.045,0,0,1,2.333-5.022c.134-.212.58-1.138.92-.954.374.2.363,1.055.38,1.39.174,3.174-1.962,7.613-1.864,8.989a.8.8,0,0,0,1.049.725c.978-.263,1.657-1.423,2.617-1.423a.577.577,0,0,1,.642.731c-.235,1.806-2.1,2.812-5.5,8.867.323.089.613.173.876.251,3.343-5.894,5-6.691,5.44-8.705.442-1.968-1.413-2.624-3.019-1.456a7.8,7.8,0,0,1-1.194.831c.535-2.809,1.668-5.181,1.83-7.772.062-1.036.05-2.734-.865-3.226-1.168-.629-2.038,1.149-2.695,2.316-.206.379-.4.759-.591,1.15.02-1.1-.045-3.74-.725-4.609-.793-1.005-2.171-.547-2.846.323A16.749,16.749,0,0,0,52.294,16.1c-.169-1.232-.373-2.606-1.2-3.214a1.4,1.4,0,0,0-1.585-.05c-1.143.759-1.043,2.578-1.127,3.766-.288,4.068-.381,7.877-.34,11.651a.447.447,0,0,0,.893,0q-.059-4.8.206-9.586a39.675,39.675,0,0,1,.385-4.291c.106-.352.329-.91.781-.865C50.776,13.561,50.988,14.164,51.094,14.532Z"/><path class="e" d="M113.706,18.918c.333-3.123.727-6.758,2.087-9.743.151-.323.3-.87.653-1.038a.642.642,0,0,1,.7.123c.329.324.274,1.049.274,1.473a6.5,6.5,0,0,1-.324,2.037c-.173.547.686.781.859.234a15.623,15.623,0,0,1,3.03-5.513,2.059,2.059,0,0,1,.536-.541.67.67,0,0,1,.837.234,3.752,3.752,0,0,1-.006,1.6,22.054,22.054,0,0,1-1.1,3.945.448.448,0,0,0,.814.346,25.016,25.016,0,0,1,2.829-4.525c.161-.207.334-.469.63-.469.424,0,.413.586.391.882a28.4,28.4,0,0,1-1.1,3.8,41.774,41.774,0,0,1-1.707,4.118c-.174.357.217.9.607.608a15.172,15.172,0,0,1,3.03-1.747c.341-.145,1.066-.569,1.429-.312.44.307.061.971-.184,1.272-.179.22-6.834,7.12-6.931,7.221l.907.345c6.831-7.1,6.921-7.068,7.2-7.845a1.4,1.4,0,0,0-1.88-1.847,13.433,13.433,0,0,0-2.751,1.3,40.586,40.586,0,0,0,2.143-6.133c.195-.758.29-1.886-.48-2.371-1.234-.782-2.2.817-3.063,2.1.2-1.051.507-2.355-.285-3.063a1.564,1.564,0,0,0-2.165.078,14.159,14.159,0,0,0-2.02,2.723c-.684,1.148-.2.749-.592-.117a1.525,1.525,0,0,0-2.153-.692,2.689,2.689,0,0,0-.9,1.317c-1.421,3.138-1.839,6.569-2.21,10.188C112.752,19.487,113.646,19.481,113.706,18.918Z"/><path class="e" d="M153.027,47.11a15.991,15.991,0,0,0-6.952-10.925c-6.681-4.292-14.844-1.167-18.748,5.446-.034-.023-.067-.045-.095-.067a4.231,4.231,0,0,0-6.038,1.113,4.453,4.453,0,0,0,4.141,7.1,13.841,13.841,0,0,0,7.438,10.965c-1.082,3.079-2.049,6.573-2.322,7.8a.446.446,0,0,0,.86.235c.64-2.577,1.395-5.134,2.265-7.645A14.828,14.828,0,0,0,141.8,62.29c-.511,3.673-.845,7.577-.971,10.92-.022.575.87.575.893,0a109.891,109.891,0,0,1,.987-11.087,13.582,13.582,0,0,0,8.649-6.194,4.482,4.482,0,0,0,5.463-2.148C158.185,50.936,156.033,47.266,153.027,47.11Zm1.686,7.692a3.773,3.773,0,0,1-3.415.156.448.448,0,0,0-.5.207c-4.547,8.026-16.027,8.515-21.839,1.333a12.485,12.485,0,0,1-2.762-7.22.455.455,0,0,0-.564-.43,3.766,3.766,0,0,1-4.335-2.516c-.935-3.169,3.087-6.379,5.836-3.7a.447.447,0,0,0,.7-.089l.05-.084a13.921,13.921,0,0,1,10.847-7.326c6.776-.473,12.613,5.577,13.487,12.421a.406.406,0,0,0,.028.078.384.384,0,0,0,.418.368C156.005,47.853,157.934,52.874,154.713,54.8Z"/><path class="e" d="M89.167,81.931v3.5c.151-.005.742-.033.893-.044V82.032a11.441,11.441,0,0,0,7.481-2.02c.5,1.406,1.01,2.815,1.512,4.221.233-.034.8-.1.9-.112-.558-1.551-1.11-3.1-1.668-4.65a14.622,14.622,0,0,0,5.323-9.877,3.938,3.938,0,0,0,2.249-4.2,2.357,2.357,0,0,0,2.84-.087,5.951,5.951,0,0,0,2.3-3.984,2.8,2.8,0,0,0-1.16-2.505,5.4,5.4,0,0,0-.1-9.391,4.15,4.15,0,0,0,1.21-5.759C110.18,42.6,108.5,42,107.54,42.92a2.785,2.785,0,0,0-4.57-2.62,2.835,2.835,0,0,0-4.62-2.372,2.58,2.58,0,0,0-4.6-.267,2.428,2.428,0,0,0-4.8.117,2.465,2.465,0,0,0-4.3.357,3.032,3.032,0,0,0-5.854,1.4,3.067,3.067,0,0,0-3.242.106c-.876.731-.747,2.478.363,2.751a4.364,4.364,0,0,0-3.956.849c-.988,1-.854,3.035.474,3.509a7.672,7.672,0,0,0-2.533.6,2.6,2.6,0,0,0-1.523,1.986,1.6,1.6,0,0,0,1.512,1.747,3.723,3.723,0,0,0-3.064,2.622c-.279,1.4,1.077,3.008,2.439,2.578a5.521,5.521,0,0,0-2.015,3.343,2.574,2.574,0,0,0,2.1,2.884,3.024,3.024,0,0,0,2.539,5.48,3.671,3.671,0,0,0,.736,4.759c1.393,1.105,2.885.46,2.963-.63a3.832,3.832,0,0,0,4.872,3.61A12.547,12.547,0,0,0,89.167,81.931ZM84.7,56.069c4.55-2.633,10.475-1.058,14.312,2.935a.448.448,0,0,0,.7-.09c1.555-2.68,5.471-.94,5.424,2.1a3.175,3.175,0,0,1-2.54,3.08.451.451,0,0,0-.312.547,13.57,13.57,0,0,1-5.77,14.987A10.958,10.958,0,0,1,89.5,81.089C78.589,79.53,74.652,61.883,84.7,56.069Z"/><circle class="e" cx="82.939" cy="66.832" r="1.138"/><circle class="e" cx="94.115" cy="62.134" r="1.138"/><path class="e" d="M90.84,59.511a2.861,2.861,0,0,1,.357-.273,4.068,4.068,0,0,1,4.96.34.445.445,0,0,0,.447-.77,4.905,4.905,0,0,0-6.406.073C89.791,59.277,90.413,59.893,90.84,59.511Z"/><path class="e" d="M80.3,65.839v0Z"/><path class="e" d="M81.906,63.094a4.875,4.875,0,0,1,1.987-.776.445.445,0,0,0-.235-.859,5.236,5.236,0,0,0-3.325,1.953,5.086,5.086,0,0,0-.949,2.812.447.447,0,0,0,.893,0A3.97,3.97,0,0,1,81.906,63.094Z"/><path class="e" d="M88.6,73.952c1.746-.231,4.36-1.72,6.216-4.687.953-1.541,1.658-3.886,2.422-2.567.878,1.566.775,5.614-1.172,7.41-.418.391.212,1.022.631.631a5.942,5.942,0,0,0,1.6-2.784c1.326-4.642-1.04-8.686-3.08-5.324-.562.933-2.014,4.865-5.892,6.228-.674.23-1.02.247-.737.212a.466.466,0,0,0-.446.446C88.156,73.723,88.362,73.984,88.6,73.952Z"/><path class="e" d="M154.233,140.158c-1.322-.706-2.285,2.041-2.785,3.47a7.512,7.512,0,0,0-1-4.18c-.508-.685-1.417-1.294-2.26-.775-1.054.653-1.155,2.21-1.178,3.315-.01.591-.055,1.182-.1,1.769-.117-.43-.251-.86-.408-1.273-.295-.786-1.629-3.76-2.862-2.488s-1.195,7.94-1.222,9.882c-.552-.717-2.385-2.545-3.292-2.545a.908.908,0,0,0-.848.742c-.452,1.646,1.273,6.763,1.813,8.384.125-.018-.046-.036.96.106-.4-1.157-2.406-7.238-1.886-8.328a1.722,1.722,0,0,1,.391.218c1.164.8,2.554,2.022,2.873,3.4a.445.445,0,0,0,.887-.028c-.049-2.294-.072-8.775.77-10.893a1.28,1.28,0,0,1,.185-.323,3.606,3.606,0,0,1,.5.5c1.066,1.337,1.638,4,1.8,5.82a.447.447,0,0,0,.893,0c.117-1.284.346-2.567.413-3.851.056-1.082-.123-2.338.474-3.308.436-.709,1.072-.246,1.429.29,1.081,1.633.779,4.981.669,6.963a.448.448,0,0,0,.877.117c.331-1.3,1.4-5.1,2.432-6.132.039-.033-.036.009.065-.042a.035.035,0,0,0,.03.014,1.51,1.51,0,0,1,.329.53c1.5,4.234-1.394,13.546-3.175,17.973.263.122.531.24.787.369.106.053,4.582-11.311,3.5-17.6A2.847,2.847,0,0,0,154.233,140.158ZM139.1,148.221c.068-.021.039-.012.028-.007C139.1,148.221,139.061,148.233,139.1,148.221Zm5.15-7.623c-.016-.028,0-.016.023,0Z"/><path class="e" d="M175.3,49.551c-.161-1.7-.764-5.881-2.41-6.35-1.435-.405-1.819,2.475-2.02,3.968a7.787,7.787,0,0,0-1.724-3.806,1.892,1.892,0,0,0-2.288-.541c-1.45.948-.616,3.5-.418,5.385-.212-.419-.436-.832-.687-1.228-.457-.72-2.36-3.32-3.292-1.791s.474,8.212.792,9.9c-.676-.593-2.879-2.041-3.744-1.841a.914.914,0,0,0-.675.909c-.11,1.854,3.079,7.2,4,8.772l.982-.078c-1.1-1.808-3.548-6.042-4.029-8.113a1.6,1.6,0,0,1-.05-.631,1.517,1.517,0,0,1,.608.212,8.162,8.162,0,0,1,2.813,1.9,2.6,2.6,0,0,1,.5.787.446.446,0,0,0,.86-.235c-.473-2.093-1.968-9.114-1.292-11.148,1.683.841,2.977,3.95,3.518,5.764.139.457.931.4.876-.117-.145-1.328-.179-2.679-.386-4-.161-1.06-.669-2.449-.105-3.465.357-.641,1.077-.128,1.44.246,1.338,1.391,1.7,4.716,1.986,6.651.078.519.854.357.876-.117.062-1.22.383-5.64,1.222-6.523.982.589,1.506,3.526,1.657,4.665a48.982,48.982,0,0,1-.6,13.341l.9-.072A50.948,50.948,0,0,0,175.3,49.551Z"/><path class="e" d="M119.113,108.874a3.14,3.14,0,0,0-2.1-.31,5.82,5.82,0,0,0-1.2-2.109,23.089,23.089,0,0,1-3.934-8.744.449.449,0,0,0-.742-.195,8.886,8.886,0,0,1-3.627,2.12,2.964,2.964,0,0,1-3.024-.976.452.452,0,0,0-.608-.162c-2.543,1.678-5.537,2.052-11.723,3.309-.3.061-.826.061-1.055.29a14.321,14.321,0,0,0-.731,1.842,3.363,3.363,0,1,0-1.417,6.26c-.629,6.589,2.077,13.059,7.934,15.35-.329,1.959-1.049,6.216-1.077,6.389.79.56.8.552.8.558,0-.272-.2,1.275,1.121-6.64a13.687,13.687,0,0,0,9.029-.507v9.775c.1-.017.714-.073.892-.1V124.958a16.552,16.552,0,0,0,8.281-9.86C120.357,115.3,121.8,110.609,119.113,108.874Zm.056,3.875a3.612,3.612,0,0,1-3.532,1.423.448.448,0,0,0-.43.329c-1.744,5.312-5.5,9.49-10.937,10.691-9.06,1.982-15.588-5.447-14.379-15.517.034-.3-.312-.491-.564-.43a2.486,2.486,0,1,1,.966-4.324.452.452,0,0,0,.742-.2c.212-.653.446-1.294.7-1.93,6.231-1.259,9.637-1.733,12.265-3.337a3.891,3.891,0,0,0,3.426,1.088,7.98,7.98,0,0,0,3.755-1.931,23.945,23.945,0,0,0,1.958,5.234c1.847,3.56,3.026,3.872,3.041,5.279a.448.448,0,0,0,.564.429C119,108.766,120.258,111.033,119.169,112.749Z"/><path class="e" d="M23.4,72.4a54.31,54.31,0,0,1,.441-8.984c.256-.558,2.416-5.429,3.253-7.3a6.4,6.4,0,0,0,.619-1.562,1.839,1.839,0,0,0-3.041-1.613c-.081.073-3.369,3.441-3.42,3.493-.743-2.377-2.511-8.024-2.651-8.47a1.587,1.587,0,0,0-1.836-1.177c-1.794.483-1.463,4.781-1.194,6.617-2.294-3.306-2.8-4.412-3.95-4.966-1.25-.6-1.92.759-2,1.814a9.782,9.782,0,0,0,1.1,4.224c-.2-.212-.39-.43-.591-.642A1.889,1.889,0,0,0,6.807,55.1C6.861,56.854,11.186,59.923,13,67.3a26.148,26.148,0,0,1,.4,9.732c-1.594,18.47,3.17,33.142,10.211,42.53.4-.342.413-.349.669-.592-.051-.1-.638-.743-1.958-2.812-5.833-9.284-8.3-20.822-8.336-31.8-.018-6.508.717-9.41.558-12.616-.408-8.081-4.261-12.732-6.574-15.97A1.038,1.038,0,0,1,8.2,54.183c.909-.5,1.635.647,2.154,1.222.764.837,2.589,2.834,2.739,3,.391.424,1.016-.207.631-.631a13.159,13.159,0,0,1-1.909-3.03c-.683-1.387-1.781-3.869-1.11-5.262.122-.258.242-.384.491-.245.9.442,1.77,2,5.078,6.768.324.469,1.088.028.77-.452a11.75,11.75,0,0,1-.792-4.017c-.236-4.323,1.106-4.432,1.495-3.264.139.446,2.522,8.057,2.857,9.123a.449.449,0,0,0,.742.2c1.161-1.189,3.739-3.828,3.872-3.956a.944.944,0,0,1,1.529.268c.24.535-.161,1.144-.379,1.629-3.605,8.093-3.377,7.537-3.415,7.8a78.757,78.757,0,0,0,1.311,24.942,73.3,73.3,0,0,0,7.606,20.517l.535-.9A76.242,76.242,0,0,1,23.4,72.4Z"/><circle class="e" cx="96.386" cy="105.657" r="1.138"/><circle class="e" cx="108.824" cy="106.795" r="1.138"/><circle class="e" cx="133.727" cy="44.133" r="1.138"/><circle class="e" cx="147.252" cy="47.543" r="1.138"/><path class="e" d="M78.078,107.638c-3.154-11.718-16.6-14.224-21.175-3.627a15.42,15.42,0,0,0-1.228,5.546,3.943,3.943,0,0,0-5.066,1.172,4.3,4.3,0,0,0,4.57,6.5c-.069,2.574-.038,5.558,1.238,7.857q-1.113,2.058-2.251,4.106c.268.123.536.257.8.391.67-1.205,1.337-2.411,1.99-3.616a9.812,9.812,0,0,0,7.086,3.9s-1.425,3.716-2.028,5.3c.223.257.441.519.647.793.469-1.233.94-2.461,1.409-3.694a.447.447,0,0,1-.123-.871c.056-.016.4-.111.508-.144.095-.246.435-1.133.513-1.334a13.1,13.1,0,0,0,12.7-10.192.391.391,0,0,0,.24-.284c1.128-5.054.105-3.693,1.28-3.961,1.379-.3,2.132-2.32,2.216-3.614C81.579,109.276,80.025,106.839,78.078,107.638ZM78.3,114.5c-.289-.119-.541.173-.563.43a31.566,31.566,0,0,1-.581,3.754.355.355,0,0,0-.24.291,12.382,12.382,0,0,1-7.884,9.374c-4.44,1.62-10.143.321-12.114-4.23-1-2.315-.921-4.988-.843-7.466a.447.447,0,0,0-.563-.429,3.634,3.634,0,0,1-4.5-1.97,3.136,3.136,0,0,1,2.076-4.207,2.947,2.947,0,0,1,2.7.692.455.455,0,0,0,.765-.313c-.086-3.964,1.459-8.407,4.81-10.713,5.325-3.673,13.815-.574,16,8.721a.446.446,0,0,0,.653.268c1.53-1.13,2.574,1.139,2.494,3.052C80.44,113.159,79.663,115.058,78.3,114.5Z"/><path class="e" d="M60.892,110.417a1.136,1.136,0,1,0-.474,2.17A1.131,1.131,0,0,0,60.892,110.417Z"/><circle class="e" cx="73.866" cy="110.311" r="1.138"/><path class="e" d="M71.667,116.365a4.8,4.8,0,0,1-8.71.318c-.268-.508-1.038-.056-.77.452a5.688,5.688,0,0,0,10.25-.318C72.672,116.3,71.9,115.845,71.667,116.365Z"/><path class="e" d="M61.428,103.375A4.035,4.035,0,0,0,58.555,106a.444.444,0,0,0,.312.546.453.453,0,0,0,.547-.312,3.169,3.169,0,0,1,2.26-2,.448.448,0,0,0,.312-.546A.469.469,0,0,0,61.428,103.375Z"/><path class="e" d="M73.3,105.127a.446.446,0,0,0,.608.162.459.459,0,0,0,.162-.609,4.147,4.147,0,0,0-2.372-2.064.445.445,0,1,0-.234.859,1.333,1.333,0,0,1,.164.065A3.34,3.34,0,0,1,73.3,105.127Z"/><path class="e" d="M108.205,112.275c-4.111,1.2-8.665,1.247-11.64-1.88-.4-.419-1.027.212-.631.63,3.145,3.3,8.092,3.385,12.5,2.1.335-.095.853-.379,1.194-.234.749.311,1.037,2.723-1.417,4.508-1.641,1.195-3.75,1.451-5.709,1.669-.564.061-.569.955,0,.893a14.375,14.375,0,0,0,5.6-1.428c3.026-1.73,3.472-4.82,2.406-6.055C109.867,111.728,109.025,112.036,108.205,112.275Z"/><path class="e" d="M135.551,127.067c-.411-.03-.777-.091-.937-.113.5,2.214,1.64,7.3,1.713,7.632a.412.412,0,0,0,.262.293c.2-.145.4-.291.6-.43C137.192,134.251,135.575,127.167,135.551,127.067Z"/><path class="e" d="M146.265,122.366c-.2.235-.489.573-.709.787.586,2.1,1.891,6.794,1.958,7.034.291-.062.586-.118.877-.174C148.236,129.478,146.294,122.489,146.265,122.366Z"/><path class="e" d="M138.631,108.283c4.661-.01,8.306,2.68,8.733,2.822a3.876,3.876,0,0,0,4.922-1.268,3.82,3.82,0,0,0-4.556-5.689,9.543,9.543,0,0,0-5.787-6.869,17.8,17.8,0,0,0-7.075-.993c-4.44.059-9.4.831-11.535,4.7-2.772,5.118-.493,11.724,1.457,17.135.133.335.65.468.818.1a19.105,19.105,0,0,1,6.2-7.684A11.939,11.939,0,0,1,138.631,108.283Zm-13.357,8.584c-.952-2.675-2.323-6.971-2.35-10.027-.028-2.09.488-4.867,1.9-6.506,2.525-2.936,7.715-3.266,11.584-3.159,5.526.131,9.433,2.241,10.6,7.707a.467.467,0,0,0,.653.262,2.938,2.938,0,1,1,.112,5.167c-.247,0-3.657-2.567-8.208-2.9C133.25,106.964,128.15,111.345,125.274,116.867Z"/><path class="e" d="M142.069,119.629c4.941-2.457,3.37-8.229-1.25-8.7-2.673-.28-7.043,1.036-8.906,3.589-1.793,2.553-.868,5.563,3.7,6.154A11.323,11.323,0,0,0,142.069,119.629Zm-9.693-4.174c1.587-3.028,8.892-5.27,11.188-2.12a3.539,3.539,0,0,1-1.311,5.178C138.162,121.079,129.959,119.96,132.376,115.455Z"/><path class="e" d="M130.083,105.657a1.145,1.145,0,0,0-1.138-1.138,1.136,1.136,0,1,0,1.138,1.138Z"/><path class="e" d="M140.467,102.8a1.134,1.134,0,1,0,.664,2.054A1.135,1.135,0,0,0,140.467,102.8Z"/><path class="e" d="M128.024,100.507a.46.46,0,0,0-.608-.162,3.168,3.168,0,0,0-1.708,2.584.449.449,0,0,0,.447.446.475.475,0,0,0,.454-.53l0-.011,0,.011a2.272,2.272,0,0,1,1.248-1.73A.44.44,0,0,0,128.024,100.507Zm-1.272,1.791.006-.011C126.78,102.231,126.768,102.287,126.752,102.3Z"/><path class="e" d="M138.637,98.978a4.009,4.009,0,0,1,2.131,1.227.448.448,0,0,0,.631,0,.459.459,0,0,0,0-.63,4.982,4.982,0,0,0-2.522-1.456.446.446,0,0,0-.24.859Z"/><path class="e" d="M139.742,113.43A3.385,3.385,0,0,1,135.205,116c-.536-.194-.776.658-.24.859a4.275,4.275,0,0,0,5.625-3.2C140.713,113.106,139.853,112.866,139.742,113.43Z"/><path class="e" d="M127.55,69.748c.434-.314.871-.631,1.306-.943.463-.335.016-1.105-.453-.77-1.859,1.355-2.158,1.478-2.432,1.93a.949.949,0,0,0,.072,1.161,1.866,1.866,0,0,0,1.2.418,20.982,20.982,0,0,0,3.777.095c.112.039.056-.011.106.089a2.352,2.352,0,0,1-.016.743c-.017.58-.034,1.166-.05,1.746a.449.449,0,0,0,.669.385c.948-.491,1.9-.988,2.846-1.479.508-.262.061-1.035-.452-.772-.72.373-1.434.747-2.154,1.121.03-1.437.14-1.78-.044-2.187-.458-1.042-1.741-.171-4.71-.642-.078-.011-.5-.033-.524-.139C126.624,70.3,127.427,69.837,127.55,69.748Z"/><path class="e" d="M137.9,77.208a.983.983,0,0,0,1.44-.2,9.755,9.755,0,0,0,.82-1.428,7.148,7.148,0,0,0,1.953,1.171,2.593,2.593,0,0,0,1.328.3.648.648,0,0,0,.578-.812.458.458,0,0,0-.832-.078,6.183,6.183,0,0,1-2.845-1.613.451.451,0,0,0-.7.089c-1.046,1.9-1.013,1.9-1.144,1.9-.162,0-.194-.1-2.2-3.331-.3-.485-1.072-.039-.77.452C137.422,76.708,137.459,76.871,137.9,77.208Z"/><path class="e" d="M134.2,75.336a.447.447,0,0,0,0,.893A.447.447,0,0,0,134.2,75.336Z"/><path class="e" d="M133.292,78.807a.447.447,0,0,0,0-.893A.447.447,0,0,0,133.292,78.807Z"/><path class="e" d="M142.95,52.392c-3.82,1.727-8.29-.441-8.386-2.852-.023-.569-.915-.574-.893,0,.119,3.065,5.149,5.69,9.731,3.616C143.921,52.927,143.469,52.157,142.95,52.392Z"/><path class="e" d="M133.035,40.065a2.2,2.2,0,0,1,.77-.429c1.209-.444,1.862.438,2.187-.14a.445.445,0,0,0-.161-.608,3.227,3.227,0,0,0-3.706.831.46.46,0,0,0,0,.631.454.454,0,0,0,.631,0A3.4,3.4,0,0,1,133.035,40.065Z"/><path class="e" d="M146.75,40.629a.445.445,0,0,0-.234.859,3,3,0,0,1,1.16.943,2.822,2.822,0,0,1,.508,1.172.45.45,0,0,0,.547.313.458.458,0,0,0,.312-.547A3.807,3.807,0,0,0,146.75,40.629Z"/><path class="e" d="M109.677,25.351a34.072,34.072,0,0,1,7.785,2.4c.518.229.97-.536.451-.77a35.465,35.465,0,0,0-8-2.489C109.354,24.392,109.108,25.249,109.677,25.351Z"/><path class="e" d="M110.766,23.256a.32.32,0,0,0,.156.156,1.642,1.642,0,0,0,1.423.011,1.026,1.026,0,0,0,.011-1.958,1.273,1.273,0,0,0-1.072.128,2.746,2.746,0,0,0-.859,1.01A.433.433,0,0,0,110.766,23.256Zm1.327-.934c.265.14-.212.481-.641.34C111.418,22.561,111.853,22.194,112.093,22.322Z"/><path class="f" d="M156.387,37.186a5.076,5.076,0,0,0,3.2-2.354c.485-.832.541-2.182-.374-2.483a2.187,2.187,0,0,0-1.39.212A9.4,9.4,0,0,1,148.8,30.97c-.932-.781-1.708-1.741-2.645-2.511a9.294,9.294,0,0,0-12.817,1.529,7.657,7.657,0,0,0-.932-4.369,8.072,8.072,0,0,0-3.666,7.265c-.949.011-1.378-1.534-2.327-1.467-.842.061-.982,1.233-.854,2.064a75.434,75.434,0,0,0,1.669,8.083c.033.022.067.044.095.067a15.71,15.71,0,0,1,5.362-5.457c9-5.43,18.821,1.152,20.338,10.936a4.042,4.042,0,0,1,1.813.558C161.005,44.785,162.471,39.975,156.387,37.186Z"/><path class="g" d="M124.143,133.029c-9.311-1.417-14.045,3.157-21.429,2-5.547-.841-9.011-5.416-12.326-6.55-6.389-2.173-20.049.932-26.421,2.907a.446.446,0,0,0,.123.87c.241,0,16.188-5.022,24.663-3.292a8.061,8.061,0,0,1,3.08,1.2c-3.4.934-6.134,4.885-2.891,6.668,1.821,1.013,4.623.778,6.59.039-.863,3.063,2.45,4.087,4.4,1.707a15.541,15.541,0,0,0,.965-1.411c-1.4,9.592-2.363,18.364-3.081,27.274-.044.569.849.569.893,0,.684-8.545,1.684-17.691,2.941-26.248a4.053,4.053,0,0,0,1.83,2.7,2.192,2.192,0,0,0,3.208-1.116c1.529,1.261,3.393,2.427,5.407,1.875,2.677-.734,4.688-4.3,3.678-7.55a23.346,23.346,0,0,1,11.862.648,20.881,20.881,0,0,1,5.787,2.929,5.633,5.633,0,0,1,.608-.653A22.56,22.56,0,0,0,124.143,133.029Zm-26.066,5.839a1.3,1.3,0,0,1-1.646-.345,2.579,2.579,0,0,1,.251-2.249.448.448,0,0,0-.608-.608c-3.514,1.789-7.655.929-7.717-.966-.045-1.287,1.8-3.441,4.441-3.828.352,0,4.593,3.853,8.186,4.682C99.845,136.793,99.441,138.358,98.077,138.868Zm11.706,1.814a10.15,10.15,0,0,1-3.236-2.154c-.307-.273-.9-.017-.742.435.331.937-1.115,2.076-2.394.8-1.037-1.032-1.105-2.606-1.433-3.967,4.826.924,9.831-.782,12.911-1.5C115.962,137.542,113.237,141.875,109.783,140.682Z"/><path class="g" d="M104.192,144.186a1.435,1.435,0,0,0-1.791,1.395.4.4,0,0,0-.061.352,1.489,1.489,0,0,0,1.289.976A1.4,1.4,0,0,0,104.192,144.186Zm-.251,1.83a.615.615,0,0,1-.6-.144.338.338,0,0,0-.016-.179c-.131-.521.613-1,.87-.4C104.275,145.561,104.248,145.924,103.941,146.016Z"/><path class="g" d="M104.2,145.789l.013-.041A.112.112,0,0,0,104.2,145.789Z"/><path class="g" d="M102.217,150.916a.433.433,0,0,0,.167.474,1.267,1.267,0,0,0,1.552,1.244,1.479,1.479,0,0,0,1.01-1.373C105,149.794,102.791,149.476,102.217,150.916Zm1.841.39c-.052.418-.552.749-.758.178-.146-.405.089-.411.2-.608C103.867,150.827,104.058,151.022,104.058,151.306Z"/><path class="g" d="M147.364,111.105c-.621-.186-10.2-7.421-18.525,2.118a19.353,19.353,0,0,0-3.237,5.011.324.324,0,0,1-.268.209c1.358,4.977,4.726,7.895,9.52,8.545,8.387,1.219,15.885-6.835,14.332-15.48A3.975,3.975,0,0,1,147.364,111.105ZM135.6,120.661c-1.862-.243-3.906-1.014-4.431-2.834-1.608-5.564,11.774-10.3,13.732-3.75C146.215,118.761,140.429,121.281,135.6,120.661Z"/><path class="g" d="M148.887,94.821a2.432,2.432,0,0,0-3.326.826,8.333,8.333,0,0,0-1.294-4.5c-.745-1.182-1.551-1.488-3-.8a11.151,11.151,0,0,0-2.951,2.082,2.514,2.514,0,0,0-2.992-3.2c-1.45.355-3.044,2.386-3.788,3.678a2.1,2.1,0,0,0-.86-2.511c-1.9-.824-4.571,2.949-5.535,4.807a17.87,17.87,0,0,0-1.806,5.787c2.157-3.879,7.109-4.64,11.535-4.7a17.781,17.781,0,0,1,7.075.993,9.546,9.546,0,0,1,5.787,6.869,4,4,0,0,1,.446-.145c1.052-1.634,2.346-3.956,2.363-5.89A3.754,3.754,0,0,0,148.887,94.821Z"/><path class="g" d="M72.292,140.235a.45.45,0,0,0,.608.162c.4-.256.787-.513,1.183-.764.218.329.441.659.659.982a.458.458,0,0,0,.608.162.453.453,0,0,0,.162-.608c-.229-.34-.458-.681-.681-1.015.329-.213.653-.425.982-.637a.457.457,0,0,0,.162-.608.452.452,0,0,0-.608-.162c-.346.223-.687.446-1.032.664-.369-.547-.737-1.1-1.1-1.646a.459.459,0,0,0-.609-.162.452.452,0,0,0-.161.608l1.127,1.68-1.138.736A.459.459,0,0,0,72.292,140.235Z"/><path class="g" d="M83.938,164.435a13.41,13.41,0,0,1-1.312,1.256c-.368-.569-.736-1.138-1.105-1.7-.312-.48-1.082-.033-.77.452.391.6.782,1.2,1.178,1.808a13.046,13.046,0,0,1-1.484.965c-.5.279-.056,1.049.452.77A14.193,14.193,0,0,0,82.42,167c.307.468.608.938.915,1.406s1.082.033.77-.452c-.329-.5-.653-1-.982-1.507a14.162,14.162,0,0,0,1.451-1.384.454.454,0,0,0,0-.63A.466.466,0,0,0,83.938,164.435Z"/><path class="g" d="M73.7,182.408c-.517.487-1.043.977-1.562,1.462a14.22,14.22,0,0,1-.876-1.423c-.268-.507-1.038-.055-.77.452a15,15,0,0,0,.988,1.591c-.475.446-.949.887-1.423,1.333-.419.391.212,1.021.63.631.441-.413.882-.826,1.328-1.239a14.517,14.517,0,0,0,1.618,1.735c.425.385,1.055-.245.631-.63a15.006,15.006,0,0,1-1.6-1.713c.558-.519,1.111-1.038,1.669-1.557C74.747,182.643,74.118,182.013,73.7,182.408Z"/><path class="g" d="M119.415,146.652c.244-.485.507-.959.792-1.428.3-.491-.469-.938-.77-.452-.274.441-.52.9-.759,1.361a10.3,10.3,0,0,0-2.02-.959.448.448,0,0,0-.547.312.454.454,0,0,0,.313.548,8.822,8.822,0,0,1,1.868.9c-.256.558-.491,1.127-.7,1.707a.445.445,0,0,0,.859.235q.261-.72.581-1.423a7.855,7.855,0,0,1,.836.743.446.446,0,0,0,.631-.631A12.85,12.85,0,0,0,119.415,146.652Z"/><path class="g" d="M116.507,175.757c-.6-.391-1.188-.792-1.785-1.183.2-.4.4-.8.6-1.2a.457.457,0,0,0-.161-.608.447.447,0,0,0-.609.162c-.19.385-.385.77-.574,1.155l-1.306-.87a.447.447,0,0,0-.608.161.453.453,0,0,0,.162.609c.452.3.9.6,1.356.9-.207.407-.408.82-.615,1.228a.457.457,0,0,0,.162.608.447.447,0,0,0,.609-.162c.2-.4.4-.787.591-1.183.581.385,1.155.77,1.736,1.15a.448.448,0,0,0,.608-.162A.46.46,0,0,0,116.507,175.757Z"/><path class="g" d="M89.707,148.617q-.777-.48-1.557-.949c.129-.3.257-.592.385-.893a.445.445,0,0,0-.77-.447c-.128.291-.251.581-.379.877l-1.507-.921c-.491-.3-.937.468-.452.77.536.323,1.066.653,1.6.976-.24.558-.48,1.116-.726,1.674a.445.445,0,0,0,.77.447l.72-1.658,1.462.894C89.746,149.688,90.193,148.917,89.707,148.617Z"/><path class="g" d="M78.062,157.1c-.615-.344-1.233-.687-1.847-1.033.134-.306.268-.613.4-.915a.445.445,0,0,0-.77-.446c-.134.312-.268.619-.4.932-.4-.224-.8-.447-1.194-.67-.5-.279-.948.491-.452.77l1.289.72c-.312.72-.625,1.445-.937,2.164a.445.445,0,0,0,.77.447c.318-.726.63-1.456.948-2.181.586.329,1.172.653,1.752.982C78.112,158.153,78.563,157.384,78.062,157.1Z"/><path class="g" d="M98.7,180.863a16.47,16.47,0,0,1-2.215-.965c.234-.5.474-.994.709-1.49a.456.456,0,0,0-.162-.608.448.448,0,0,0-.608.161c-.24.5-.475,1-.715,1.5q-.636-.367-1.238-.786a.448.448,0,0,0-.609.161.454.454,0,0,0,.162.609c.424.3.86.568,1.306.825l-.737,1.552a.457.457,0,0,0,.162.608.45.45,0,0,0,.608-.162c.252-.524.5-1.044.748-1.568a18.129,18.129,0,0,0,2.36,1.021.448.448,0,0,0,.547-.313A.46.46,0,0,0,98.7,180.863Z"/><path class="g" d="M110.481,161.456c-.754-.183-1.5-.374-2.255-.558.134-.5.268-.988.408-1.484a.446.446,0,0,0-.86-.235c-.139.5-.273,1-.412,1.507-.457-.112-.921-.229-1.379-.34a.445.445,0,0,0-.234.859c.458.111.921.229,1.378.34l-.4,1.468a.445.445,0,0,0,.859.234c.134-.5.274-.993.407-1.49.754.184,1.5.374,2.254.558C110.8,162.449,111.038,161.591,110.481,161.456Z"/><path class="g" d="M112.73,189.383c.251-.34.5-.675.747-1.015a.442.442,0,0,0-.162-.609.451.451,0,0,0-.608.162c-.256.346-.513.692-.764,1.038a9.965,9.965,0,0,0-1.429-.575.454.454,0,0,0-.547.313.447.447,0,0,0,.313.547,8.373,8.373,0,0,1,1.127.44c-.307.413-.608.827-.915,1.239a.443.443,0,0,0,.162.608.451.451,0,0,0,.608-.161c.312-.425.625-.849.944-1.273a8.49,8.49,0,0,1,1.266.9.459.459,0,0,0,.63,0,.448.448,0,0,0,0-.631A9.5,9.5,0,0,0,112.73,189.383Z"/><path class="h" d="M70.663,150.042a6.6,6.6,0,0,0-3.264-.033c-.525.078-.737-.731-.2-.86.168-.041.483-.091.5-.095-.721-6.157-2.5-10.055-5.683-13.891a21.931,21.931,0,0,0-14.008-7.711c-.86-2.634-5.714-16.762-12.985-24.406-2.32,4.729-8.793,16.085-13.994,18.151a60.749,60.749,0,0,0,5.479,11.712A67.638,67.638,0,0,0,5.724,148.416c-.385.424.246,1.054.631.63a66.927,66.927,0,0,1,19.184-14.68c7.565-3.881,17.47-7.875,25.617-5.357C42.162,144.5,22.087,174.172,5.814,181.862c-.519.245-.067,1.015.452.77,15.608-7.49,33.554-33.472,42.669-48.211,1.049-1.691,2.137-3.387,3.1-5.133a22.135,22.135,0,0,1,10.551,8.063c-6.308,10.761-14.292,27.778-17.811,41.23A56.7,56.7,0,0,0,42.6,194.533c.017.57.91.575.893,0-.434-13.062,6.7-30.574,12.32-42.34,3.8-7.939,6.592-12.672,7.332-14.005,2.777,4.322,3.686,8.928,3.956,14.2.642,12.614-4.554,30.623-9.424,41.927-.223.519.541.976.77.452A135.765,135.765,0,0,0,65.73,172.3l.118.062c1.032-4.012,5.384-20.467,5.446-20.758A1.235,1.235,0,0,0,70.663,150.042Z"/><path class="h" d="M36.994,140.4a.533.533,0,0,0,.491.508.558.558,0,0,0,.508-.882c-.286-.446-.738-.371-2.322-1.406a17.359,17.359,0,0,1-4.129-3.772.447.447,0,0,0-.63,0,.453.453,0,0,0,0,.631A17.806,17.806,0,0,0,36.994,140.4Z"/><path class="h" d="M24.406,140.576c-.863,1.519-1.8,3.42-1.473,5.217.34,1.83,2.159,2.623,3.85,2.673,3.766.122,7.136-2.346,9.413-5.312.028.011.05.028.078.039.514.256.965-.514.452-.77a22.775,22.775,0,0,1-7.934-6.512c-.307-.4-.955-.089-.837.307A17.056,17.056,0,0,0,24.406,140.576Zm4.084-3.638a23.857,23.857,0,0,0,6.919,5.792c-1.869,2.422-4.586,4.547-7.728,4.821-1.384.122-3.314-.1-3.8-1.663-.48-1.535.463-3.336,1.183-4.648A16.214,16.214,0,0,1,28.49,136.938Z"/><path class="h" d="M65.669,154.5c.542.189.776-.669.234-.859a24.95,24.95,0,0,1-6.227-3.208c-.469-.33-.915.44-.452.77A26.049,26.049,0,0,0,65.669,154.5Z"/><path class="h" d="M65.479,163.359c.329-.475-.446-.916-.77-.452-1.7,2.427-4.152,2.585-5.4,1.378-1.3-1.249-1.187-3.815-1.054-5.719a9.335,9.335,0,0,1,1.038-4.007,20.094,20.094,0,0,0,6.366,2.717c.558.129.8-.73.235-.859a19.452,19.452,0,0,1-6.7-2.99c-.441-.308-.854.345-.519.7a.41.41,0,0,0-.212.178,9.288,9.288,0,0,0-1.071,3.878c-.194,2.27-.287,5.268,1.328,6.763C60.36,166.482,63.406,166.345,65.479,163.359Z"/><path class="h" d="M7.186,175.74c-.53.2-.3,1.066.234.86,8.957-3.4,14.794-11.336,20.267-19,.334-.469-.441-.915-.77-.451C21.605,164.591,15.936,172.411,7.186,175.74Z"/><path class="h" d="M48.84,178.742c-1.273,3.761-1.692,7.7-2.567,13.894a.464.464,0,0,0,.313.547.445.445,0,0,0,.546-.313c.81-5.735,1.254-10,2.567-13.894C49.883,178.435,49.023,178.2,48.84,178.742Z"/><path class="i" d="M194.38,169.106a122.446,122.446,0,0,0-13.793-24.127,56.655,56.655,0,0,0-8.32-9.051c16.8-43.612,3.861-74.039,3.861-74.039l-17.554,1.383a118.037,118.037,0,0,1,2.455,37.1c-1.562,16.338-6.249,26.89-7.259,29.021a1.275,1.275,0,0,1-.062.123,35.193,35.193,0,0,0-5.295.508.059.059,0,0,0-.022,0c-5.354.91-11.354,3.6-15,7.678-3.768,4.4-8.45,13.024-10.952,22.108-2.311,8.386-2.261,16.907,2.326,24.68a15.139,15.139,0,0,0,5.541,5.546c9.335,5.261,15.74-4.96,18.48-12.521a52.509,52.509,0,0,0,2.852-12.867c.05-.525.552-4.392.178-4.754l-.022-.029a40.793,40.793,0,0,0-6.367-2.471,46.354,46.354,0,0,0-5.228-.946c-1.254-.177-2.371,4.211-2.645,4.969q-1.013,2.813-2.02,5.63c-.419,1.161-1.116,3.426-2.768,3.13-1.632-.3-.829-8.348-.764-9.167.579-7.284,4.561-17.274,1.964-22.627a25.225,25.225,0,0,1,12.839-7.125.44.44,0,0,0,.19.457c6.983,4.751,12.448,11.863,16.377,19.329,4.017,7.609,9.589,20.58,13.074,29.25.206.53,1.065.295.86-.235-2.733-7.009-8.829-21.089-12.706-28.6-4.057-7.868-9.589-15.292-16.969-20.378a36.811,36.811,0,0,1,12.265-.329c12.466,1.649,23.184,18.139,29.093,29.222,1.4,2.615,4.2,8.363,4.542,9.385C193.738,169.865,194.6,169.637,194.38,169.106Z"/><path class="i" d="M163.434,140.877a1.418,1.418,0,0,0-1.936.352c-.872,1.128-.1,2.616.53,2.271C163.928,144.442,165.1,142.013,163.434,140.877Zm-.1,1.546c-.035.323-.315.425-.6.38a.685.685,0,0,1-.6-.4c-.056-.141.015-.213-.062-.362C162.387,141.182,163.43,141.541,163.334,142.423Z"/><path class="i" d="M167.29,147.233a1.531,1.531,0,0,0-.865,2.723,1.474,1.474,0,0,0,2.751-.229A2,2,0,0,0,167.29,147.233Zm.9,2.5a.6.6,0,0,1-.851.028c.008-.179-.178-.676-.513-.7a.661.661,0,0,1-.006-.608C167.473,147.445,168.865,148.994,168.191,149.73Z"/><path class="i" d="M171.7,155.5a2.023,2.023,0,0,0-1.518,1.964.453.453,0,0,0,.446.447c.017,0,.039-.012.056-.012a1.7,1.7,0,0,0,2.9.341A1.8,1.8,0,0,0,171.7,155.5Zm1.015,2.389a.812.812,0,0,1-.887-.029.7.7,0,0,1-.379-.7.393.393,0,0,0-.182-.349c.012-.011.059-.075.037-.053C172.517,155.506,173.458,157.314,172.713,157.891Z"/><path class="i" d="M176.541,165.652a2,2,0,0,0-1.512,1.853.461.461,0,0,0,.24.39,1.81,1.81,0,0,0,3.209.508A1.839,1.839,0,0,0,176.541,165.652Zm.987,2.488a.935.935,0,0,1-1.433-.574.376.376,0,0,0-.162-.229,1,1,0,0,1,.525-.7c.5-.235.946-.225,1.205.267A.892.892,0,0,1,177.528,168.14Z"/><path class="i" d="M176.414,168.074l-.015-.012Z"/><path class="i" d="M159.266,150.441a1.828,1.828,0,0,0-1.825,2.818.558.558,0,0,0,.3.207.433.433,0,0,0,.2.267,1.844,1.844,0,0,0,2.762-1.785A1.95,1.95,0,0,0,159.266,150.441Zm-.284,2.651c-.575.053-.422-.106-.726-.173a.237.237,0,0,0-.045-.106c-.479-.639.038-1.693.809-1.524C159.959,151.475,160.266,152.972,158.982,153.092Z"/><path class="i" d="M158.086,152.613l-.006-.012Z"/><path class="i" d="M163.97,160.022a1.378,1.378,0,0,0-2.015-.72c-.874.539-.916,1.453-.82,2.466a.459.459,0,0,0,.419.441C162.7,163.351,164.894,162,163.97,160.022Zm-1.077,1.635c-.636.318-1.019-.28-.765-.653a.483.483,0,0,0,0-.634.7.7,0,0,1,.493-.381C163.22,159.988,163.57,161.264,162.893,161.657Z"/><path class="i" d="M165.5,168a1.483,1.483,0,0,0-1.222,2.092.36.36,0,0,0,.106.118,1.874,1.874,0,0,0,2.924,1.456C169.109,170.366,167.228,167.8,165.5,168Zm1.289,2.952a.933.933,0,0,1-1.389-.408,1.364,1.364,0,0,1-.123-.909.463.463,0,0,0-.168-.474c.433-.638,1.346-.158,1.786.479C167.259,170.175,167.317,170.573,166.793,170.953Z"/><path class="e" d="M37.4,125.929c-.67.848-2.868,4.335-.625,4.6a2.514,2.514,0,0,0,1.69-.536,6.166,6.166,0,0,0-.7,2.21,1.288,1.288,0,0,0,.675,1.222,2.069,2.069,0,0,0,1.568-.078,10.5,10.5,0,0,0,3.242-1.78c-.742,2.353.75,3.6,2.567,2.779a12.743,12.743,0,0,0,4.787-4.8.447.447,0,0,0-.77-.452c-1.568,2.714-3.928,4.395-4.8,4.593-1.071.24-1.177-.882-.987-1.646a9.352,9.352,0,0,1,1.624-3.086c.323-.486-.441-.9-.77-.452a10.124,10.124,0,0,1-4.051,3.526,5.894,5.894,0,0,1-1.658.6c-1.211.167.09-2.327.313-2.751a10.594,10.594,0,0,1,2.349-2.94c.379-.335-.112-.966-.541-.7-1.4.871-2.238,2.466-3.728,3.2-.189.095-.7.335-.87.107s.145-.871.234-1.106c2.093-5.535,10.052-7.416,15.479-2.008a.446.446,0,0,0,.63-.631C48.4,121.211,41.165,121.135,37.4,125.929Z"/><path class="e" d="M166.458,131.805a7.222,7.222,0,0,0-1.121-2.534c-3.446-5.156-11.062-5.728-16.1-.692a.446.446,0,0,0,.631.631c3.906-3.907,10.033-4.529,13.837-.553a6.555,6.555,0,0,1,1.9,3.594c-.067.184-.273.162-.441.133-1.44-.26-2.463-2.3-4.179-3.369-.424-.263-.926.362-.541.7a10.52,10.52,0,0,1,2.315,2.891c.526.964,1.431,2.953.341,2.8a9.393,9.393,0,0,1-3.2-1.518,10.186,10.186,0,0,1-2.516-2.61c-.329-.459-1.094-.034-.77.451a9.38,9.38,0,0,1,1.624,3.086c.189.759.083,1.886-.988,1.646-.933-.208-3.306-1.985-4.8-4.593a.447.447,0,0,0-.77.453,12.835,12.835,0,0,0,4.358,4.575c2.257,1.354,3.789-.361,2.991-2.556,1.6,1.265,4.983,3.042,5.446,1.044a4.667,4.667,0,0,0-.647-2.6C165.627,133.919,166.7,133.056,166.458,131.805Z"/><path class="g" d="M71.734,149.716c-1.009-1.088-3.194-.908-4.531-.567-.541.129-.327.949.2.86,2.039-.351,4.328-.443,3.911,1.593-.236,1.114-7.5,28.869-8.5,33.3a64.021,64.021,0,0,0-1.7,9.636c-.022.575.865.575.893,0,.173-4.106,3.433-16.882,4.453-20.886C72.087,151.577,72.981,151.06,71.734,149.716Z"/></svg>